<svg width="48" height="48" viewBox="0 0 48 48" fill="none" xmlns="http://www.w3.org/2000/svg">
<rect width="48" height="48" rx="24" fill="#2F2F2F"/>
<path d="M31.5 23.5834C31.5029 24.6832 31.2459 25.7683 30.75 26.75C30.162 27.9265 29.2581 28.916 28.1395 29.6078C27.021 30.2995 25.7319 30.6662 24.4167 30.6667C23.3168 30.6696 22.2318 30.4126 21.25 29.9167L16.5 31.5L18.0833 26.75C17.5874 25.7683 17.3305 24.6832 17.3333 23.5834C17.3338 22.2682 17.7005 20.9791 18.3923 19.8605C19.084 18.7419 20.0735 17.838 21.25 17.25C22.2318 16.7541 23.3168 16.4972 24.4167 16.5H24.8333C26.5703 16.5959 28.2109 17.329 29.441 18.5591C30.671 19.7892 31.4042 21.4297 31.5 23.1667V23.5834Z" stroke="white" stroke-width="1.6" stroke-linecap="round" stroke-linejoin="round"/>
</svg>
