<svg width="48" height="48" viewBox="0 0 48 48" fill="none" xmlns="http://www.w3.org/2000/svg">
<rect width="48" height="48" rx="24" fill="#CE2626"/>
<g clip-path="url(#clip0_167_1867)">
<path d="M33.166 14.8335L28.166 19.8335" stroke="white" stroke-width="1.6" stroke-linecap="round" stroke-linejoin="round"/>
<path d="M28.166 14.8335L33.166 19.8335" stroke="white" stroke-width="1.6" stroke-linecap="round" stroke-linejoin="round"/>
<path d="M31.4074 28.9334V31.4334C31.4084 31.6655 31.3608 31.8952 31.2678 32.1079C31.1749 32.3205 31.0385 32.5114 30.8675 32.6683C30.6965 32.8252 30.4946 32.9446 30.2747 33.019C30.0549 33.0934 29.8219 33.121 29.5907 33.1001C27.0264 32.8214 24.5632 31.9452 22.3991 30.5417C20.3856 29.2623 18.6785 27.5552 17.3991 25.5417C15.9907 23.3678 15.1143 20.8926 14.8407 18.3167C14.8199 18.0863 14.8473 17.854 14.9212 17.6348C14.995 17.4155 15.1137 17.214 15.2697 17.0431C15.4257 16.8722 15.6156 16.7357 15.8272 16.6422C16.0389 16.5487 16.2677 16.5003 16.4991 16.5001H18.9991C19.4035 16.4961 19.7956 16.6393 20.1022 16.903C20.4089 17.1667 20.6091 17.533 20.6657 17.9334C20.7713 18.7335 20.967 19.519 21.2491 20.2751C21.3612 20.5734 21.3855 20.8975 21.319 21.2091C21.2525 21.5208 21.0981 21.8068 20.8741 22.0334L19.8157 23.0917C21.002 25.178 22.7295 26.9055 24.8157 28.0917L25.8741 27.0334C26.1007 26.8094 26.3867 26.655 26.6983 26.5885C27.01 26.522 27.3341 26.5463 27.6324 26.6584C28.3885 26.9405 29.174 27.1362 29.9741 27.2417C30.3789 27.2989 30.7486 27.5028 31.0129 27.8147C31.2771 28.1266 31.4176 28.5247 31.4074 28.9334Z" stroke="white" stroke-width="1.6" stroke-linecap="round" stroke-linejoin="round"/>
</g>
<defs>
<clipPath id="clip0_167_1867">
<rect width="20" height="20" fill="white" transform="translate(14 14)"/>
</clipPath>
</defs>
</svg>
