<svg width="48" height="48" viewBox="0 0 48 48" fill="none" xmlns="http://www.w3.org/2000/svg">
<rect width="48" height="48" rx="24" fill="#2F2F2F"/>
<path d="M28.1673 31.5V29.8333C28.1673 28.9493 27.8161 28.1014 27.191 27.4763C26.5659 26.8512 25.718 26.5 24.834 26.5H18.1673C17.2833 26.5 16.4354 26.8512 15.8103 27.4763C15.1852 28.1014 14.834 28.9493 14.834 29.8333V31.5" stroke="white" stroke-width="1.6" stroke-linecap="round" stroke-linejoin="round"/>
<path d="M21.4993 23.1667C23.3403 23.1667 24.8327 21.6743 24.8327 19.8333C24.8327 17.9924 23.3403 16.5 21.4993 16.5C19.6584 16.5 18.166 17.9924 18.166 19.8333C18.166 21.6743 19.6584 23.1667 21.4993 23.1667Z" stroke="white" stroke-width="1.6" stroke-linecap="round" stroke-linejoin="round"/>
<path d="M33.166 31.5001V29.8334C33.1655 29.0948 32.9196 28.3774 32.4672 27.7937C32.0147 27.2099 31.3811 26.793 30.666 26.6084" stroke="white" stroke-width="1.6" stroke-linecap="round" stroke-linejoin="round"/>
<path d="M27.334 16.6084C28.051 16.792 28.6865 17.209 29.1403 17.7937C29.5942 18.3783 29.8405 19.0974 29.8405 19.8376C29.8405 20.5777 29.5942 21.2968 29.1403 21.8815C28.6865 22.4661 28.051 22.8831 27.334 23.0667" stroke="white" stroke-width="1.6" stroke-linecap="round" stroke-linejoin="round"/>
</svg>
